<svg width="158" height="70" viewBox="0 0 158 70" fill="none" xmlns="http://www.w3.org/2000/svg">
<path d="M93.7677 34.9938C93.7677 35.5642 93.7499 36.1345 93.7677 36.7058C93.9647 42.5085 92.1351 47.7366 89.1974 52.6662C88.2125 54.3194 87.2711 56.0007 86.4229 57.7276C85.7229 59.1473 84.7504 60.1424 83.2376 60.7241C82.393 61.0479 81.6095 61.6095 80.9015 62.1878C77.6416 64.8527 73.9435 66.7612 69.9881 68.1055C67.3609 68.9979 64.6556 69.7832 61.8013 69.7481C60.9504 69.7385 60.0977 69.9973 59.2451 70C58.3924 70.0026 57.5406 69.7288 56.696 69.7648C53.0156 69.921 49.6058 68.7996 46.2209 67.6229C42.5263 66.34 39.2639 64.313 36.1948 61.8973C31.8641 58.4901 28.7782 54.1983 26.5094 49.2853C25.2868 46.6371 24.2913 43.9037 24.01 40.9651C23.963 40.4772 23.7997 39.9946 23.6551 39.5216C22.6259 36.2249 23.2177 32.9923 23.8547 29.7079C24.3418 27.1956 24.8431 24.7141 25.7916 22.3291C28.299 16.0209 32.2811 10.8552 37.7963 6.79776C42.3941 3.41858 47.5403 1.34159 53.1354 0.449195C59.5556 -0.574824 65.8233 0.162259 71.9046 2.55515C74.939 3.75291 77.8022 5.27006 80.3026 7.27861C82.6352 9.15203 84.7389 11.344 86.7264 13.5842C88.5275 15.6147 89.8061 18.033 90.948 20.5005C92.7314 24.3552 93.8937 28.3451 93.7757 32.6316C93.7499 33.424 93.7686 34.2093 93.7677 34.9938ZM91.3029 27.1842C91.1254 25.8373 91.0145 24.2763 90.6818 22.7617C89.7342 18.4033 87.1851 15.0013 83.7877 12.2232C81.8588 10.6438 79.756 9.27137 77.6833 7.8753C76.9815 7.40234 76.1661 6.96799 75.3463 6.82233C73.239 6.43799 71.1078 6.0791 68.9722 5.97117C65.2652 5.78427 61.9353 4.83747 59.1368 2.28576C57.0766 0.40883 54.8336 0.227192 52.6926 1.87949C50.2659 3.75027 47.5039 4.84887 44.6886 5.93607C42.6257 6.73282 40.6391 7.73666 38.6552 8.72821C36.9978 9.55831 36.0324 10.8526 36.0555 12.8129C36.0688 13.9124 35.5595 14.8311 34.5312 15.4401C33.673 15.951 32.8488 16.5158 32.0637 17.131C29.8695 18.8403 28.1597 20.7655 27.7906 23.7533C27.4987 26.1163 26.7765 28.4522 25.1404 30.3984C24.5937 31.0681 24.2547 31.88 24.1644 32.7361C24.0135 34.5024 24.0756 36.2898 24.12 38.0667C24.1324 38.5423 24.3409 39.0522 24.5867 39.4707C25.1518 40.4596 25.7672 41.4197 26.4304 42.3471C28.0364 44.5575 29.433 46.8222 29.7559 49.6302C30.0682 52.3504 31.3956 54.5669 33.6413 56.2586C36.894 58.7103 40.0296 61.3129 43.3311 63.7005C45.1056 64.9869 47.0052 66.1119 49.3459 66.3725C51.6865 66.6331 53.9809 67.264 56.0793 68.431C56.5192 68.6656 57.0017 68.8121 57.4989 68.8619C60.4597 69.1778 63.2005 68.4521 65.8002 67.0806C66.6156 66.6506 67.4549 66.2602 68.2987 65.8864C70.3306 64.9861 72.5833 64.3946 74.3534 63.1407C76.3223 61.7429 78.4278 61.1225 80.6876 60.732C81.6636 60.5627 82.4622 60.1643 83.0974 59.4457C83.856 58.5927 84.5579 57.6907 85.3484 56.8667C86.1656 56.0165 86.7556 55.1118 86.8985 53.9C87.1176 52.0424 87.9206 50.4023 88.9392 48.8264C90.664 46.1641 91.6445 43.2219 92.1546 40.0937C92.2886 39.2733 92.3649 38.5792 91.9541 37.857C90.767 35.773 91.2514 33.4064 90.8761 31.1882C90.6862 29.9887 91.1236 28.6768 91.3073 27.1816L91.3029 27.1842ZM77.0135 6.36428C76.5122 5.81586 76.3533 5.56753 76.1262 5.41397C75.7163 5.13318 75.2691 4.90416 74.8335 4.6611C71.1069 2.58323 67.0255 1.57324 62.8554 0.847569C62.0178 0.70103 61.1367 0.766842 60.2823 0.799309C60.0596 0.807206 59.7943 1.02131 59.6532 1.21435C59.5884 1.3021 59.734 1.60922 59.8573 1.75576C60.7849 2.84996 61.9947 3.67534 63.3584 4.14426C65.7126 4.98302 68.1876 5.44311 70.689 5.50699C71.7484 5.53595 72.8052 5.73425 73.8601 5.8764C74.7598 6.00276 75.6586 6.15456 77.0135 6.36428ZM45.3532 66.247C42.852 64.2235 40.6595 62.415 38.4281 60.6548C36.5808 59.1982 34.6936 57.7907 32.8055 56.3859C32.5934 56.2279 32.2589 56.2323 31.7949 56.1139C34.0698 59.894 41.6666 65.6371 45.3532 66.247ZM28.5013 19.0289C30.0097 17.8882 31.4053 16.6878 32.9377 15.6945C35.0857 14.309 35.9073 12.5865 35.3998 9.62938C33.8755 10.8631 32.7886 12.3496 31.613 13.7C30.3708 15.1242 29.4498 16.8203 28.4144 18.4147C28.3345 18.5437 28.4641 18.7982 28.5013 19.0289ZM79.3727 62.1702C77.9655 62.0746 76.5485 62.3203 75.6657 63.0723C73.9905 64.4982 71.9977 65.2151 69.9703 65.9285C68.9056 66.3023 67.9021 66.8516 66.8995 67.3754C66.7611 67.4474 66.7354 67.8326 66.7638 68.0599C66.7735 68.1362 67.1488 68.2617 67.3032 68.2099C69.1239 67.5957 71.0049 67.1008 72.7289 66.2795C74.8432 65.2756 76.828 64.0042 78.851 62.8248C79.063 62.7072 79.1748 62.4291 79.3727 62.1702ZM25.6142 42.3971C25.2096 43.5773 25.2894 44.231 25.5441 44.9269C26.2494 46.8573 26.678 48.8948 27.9494 50.5814C28.4206 51.207 28.5173 52.6057 29.3868 52.3038C30.1525 52.0406 29.2564 50.9332 29.204 50.1865C29.0035 47.3338 27.4881 45.0348 25.6142 42.3971ZM39.263 6.87235L39.452 7.15401C40.5034 6.76792 41.5645 6.40289 42.6053 5.9896C44.8672 5.09165 47.1221 4.17702 49.3698 3.24572C49.8232 3.05619 50.2384 2.75258 50.6253 2.44546C50.7335 2.35771 50.714 2.06288 50.6803 1.88036C50.6626 1.79876 50.4487 1.71013 50.3254 1.70487C50.1145 1.70942 49.9054 1.74369 49.7043 1.80665C46.6486 2.66571 43.7667 3.93717 41.0091 5.48066C40.3641 5.84218 39.8406 6.40377 39.263 6.87235ZM92.9292 37.5095C93.1138 37.2972 93.2584 37.2086 93.2682 37.1085C93.5663 34.0005 93.2336 30.9205 92.8032 27.8485C92.7819 27.6941 92.5655 27.4729 92.4182 27.4545C92.2558 27.4334 92.0029 27.5668 91.9044 27.7107C91.7426 27.9386 91.6418 28.2034 91.6116 28.4803C91.4495 31.0139 91.6183 33.5576 92.1138 36.0485C92.2114 36.5513 92.632 36.9936 92.9292 37.5095ZM24.876 28.9331C26.0684 28.4829 26.2468 27.6677 26.3746 26.9324C26.686 25.138 27.465 23.4111 27.2077 21.514C25.9611 23.7779 24.8556 26.0716 24.8768 28.9331H24.876ZM53.7369 68.3249C51.0636 67.1543 50.3387 67.0315 47.9591 67.3596C48.9679 67.7378 49.8756 68.3389 50.7886 68.3486C51.7406 68.3626 52.7716 69.5165 53.7378 68.3249H53.7369Z" fill="#3C322D"/>
<path d="M59.2495 45.048C57.4217 45.0155 56.1663 44.2582 55.2364 42.7955C54.3704 41.431 52.9295 40.7229 51.6102 39.8822C49.9465 38.8231 48.5934 37.628 48.2093 35.4808C47.9431 34.0251 48.2527 32.7606 48.8499 31.6111C49.3512 30.6503 50.2455 29.7579 51.1852 29.1866C52.2037 28.5671 53.0484 27.9827 53.5187 26.8385C54.051 25.5223 55.3926 25.4424 56.5806 25.2055C57.6995 24.9826 58.8369 24.8396 59.9398 24.5606C61.4482 24.1797 62.8172 24.2973 63.9192 25.46C64.771 26.362 65.7656 27.0087 66.8747 27.5563C68.0281 28.1249 68.4088 28.7891 68.0476 29.9773C67.8019 30.7837 68.0396 31.333 68.3431 31.977C68.6749 32.679 69.0165 33.3924 69.2446 34.1339C70.0041 36.6013 69.1301 38.6783 66.7913 39.7769C65.3415 40.4579 64.2315 41.3652 63.8704 42.9613C63.7258 43.6045 63.3203 43.9695 62.7471 44.1363C61.5901 44.4715 60.4163 44.7479 59.2495 45.048ZM66.9226 34.7034C66.9598 30.3563 63.6308 26.8806 59.3019 26.8754C55.4174 26.8754 51.5099 29.4771 51.3582 34.4629C51.2366 38.4537 54.5949 42.1707 58.9727 42.1847C64.3043 42.2111 66.8188 38.5467 66.9226 34.7034ZM51.3156 38.8591C51.3156 38.3019 51.3697 38.0167 51.3076 37.7596C50.7335 35.3983 50.36 33.0598 51.6625 30.7854C51.7565 30.6222 51.5401 30.2852 51.4673 30.029C51.2118 30.1106 50.903 30.1273 50.7096 30.2844C48.558 32.0323 47.5979 36.2293 51.3156 38.8591ZM59.3063 25.7847C60.2069 26.1111 60.7206 26.3427 61.2583 26.4866C63.2413 27.0061 64.9333 27.9397 66.1107 29.6614C66.3432 30.0001 66.6431 30.5037 67.0867 30.1177C67.3227 29.9114 67.3999 29.2814 67.2642 28.9664C67.0805 28.5478 66.6635 28.0257 66.2625 27.9433C65.1729 27.7177 64.5767 26.9368 63.8668 26.2559C62.6726 25.1213 61.339 24.765 59.3063 25.7847ZM59.1839 42.8955L59.1572 42.7314C58.5858 42.7314 58.0091 42.6832 57.4466 42.7516C57.1573 42.7867 56.8947 43.0298 56.6205 43.1789C56.8699 43.3974 57.0872 43.7414 57.3747 43.8125C58.9115 44.1959 60.4606 44.2784 61.9761 43.6914C62.2352 43.5905 62.5235 43.4588 62.6859 43.2526C62.8296 43.0771 62.8767 42.7656 62.8474 42.5296C62.8358 42.4418 62.4774 42.3094 62.2999 42.3374C61.2592 42.4989 60.2228 42.7025 59.1883 42.8929L59.1839 42.8955ZM67.0433 38.437C68.108 38.2414 68.5835 37.6473 68.6457 36.7338C68.6916 35.9639 68.6804 35.1917 68.6119 34.4234C68.5951 34.2207 68.3094 34.04 68.147 33.8487C67.9101 34.0707 67.4292 34.369 67.4727 34.5024C67.9048 35.8353 67.0015 37.0287 67.0433 38.4344V38.437Z" fill="#3C322D"/>
<path d="M76.7828 44.4557C76.7215 44.4864 76.4749 44.6908 76.2078 44.7189C75.9647 44.747 75.6098 44.6663 75.459 44.4978C74.7021 43.6528 73.9675 42.7841 73.2905 41.8759C73.113 41.6381 73.0403 40.9984 73.1414 40.9431C73.4742 40.7615 74.1245 40.572 74.2691 40.729C75.1254 41.6635 75.8786 42.6911 76.6523 43.6984C76.7278 43.7993 76.7047 43.9722 76.7828 44.4557Z" fill="#3C322D"/>
<path d="M40.5353 51.7747C40.931 51.8063 41.7127 51.83 42.4749 51.959C42.6647 51.9915 42.9185 52.3591 42.9185 52.5785C42.9185 52.7979 42.6993 53.1769 42.5095 53.2234C41.0277 53.5876 39.5531 53.6771 38.2417 52.697C38.1677 52.6287 38.1103 52.5446 38.0742 52.451C38.0381 52.3575 38.024 52.257 38.0332 52.1573C38.0616 52.0108 38.2914 51.8063 38.4458 51.7958C39.0145 51.7484 39.585 51.7747 40.5353 51.7747Z" fill="#3C322D"/>
<path d="M86.9677 20.9173L87.5284 21.2209C87.3696 21.5026 87.272 21.9553 87.0405 22.0369C85.9735 22.425 84.8788 22.7341 83.7655 22.9618C83.4452 23.0241 82.9803 22.7126 82.6849 22.4555C82.3442 22.158 82.5473 21.5122 82.9768 21.4473C84.2393 21.2551 85.5108 21.1077 86.9677 20.9173Z" fill="#3C322D"/>
<path d="M49.2509 58.0575C49.8436 58.3313 50.3396 58.4085 50.5818 58.7007C51.2451 59.515 51.8519 60.3728 52.398 61.2682C52.6642 61.6946 52.4211 62.1562 51.973 62.279C51.7273 62.3466 51.2819 62.1483 51.1009 61.928C50.3776 61.0663 49.7074 60.1623 49.0939 59.221C48.9519 58.9973 49.1719 58.548 49.2509 58.0575Z" fill="#3C322D"/>
<path d="M72.5061 24.1016C72.5434 23.8524 72.5061 23.5673 72.6242 23.4576C72.7839 23.3137 73.1263 23.1943 73.2905 23.2724C73.515 23.3786 73.6605 23.6699 73.8149 23.899C74.2443 24.536 74.6693 25.1766 75.0783 25.8294C75.2611 26.1216 75.5069 26.4331 75.522 26.7481C75.5397 27.0394 75.3605 27.4176 75.1387 27.6177C75.0153 27.73 74.5069 27.6572 74.3818 27.5019C73.562 26.4708 72.5789 25.5056 72.5061 24.1016Z" fill="#3C322D"/>
<path d="M75.057 13.1472C74.8796 14.2002 74.8086 14.975 74.6019 15.7173C74.4723 16.1184 74.2253 16.4723 73.8921 16.7343C73.6569 16.9221 73.247 16.8949 72.9161 16.9634C72.8894 16.6571 72.7927 16.3377 72.8486 16.0473C73.0216 15.1505 73.2532 14.2642 73.4608 13.3745C73.4768 13.3051 73.4724 13.2314 73.4928 13.1639C73.656 12.6269 74.0092 12.2179 74.5744 12.44C74.8592 12.5523 74.9923 13.0445 75.057 13.1472Z" fill="#3C322D"/>
<path d="M59.7588 19.9951C60.2574 20.0565 60.9025 20.0898 61.5183 20.2372C61.7285 20.2873 62.0391 20.6619 62.0027 20.8234C61.9388 21.1121 61.6957 21.492 61.4393 21.578C61.0328 21.7035 60.5977 21.7057 60.19 21.5842C59.4802 21.3604 58.8192 21.2858 58.1112 21.5789C57.6462 21.7719 57.2097 21.5692 57.0855 21.1112C56.9196 20.497 57.3863 20.1995 57.9106 20.1126C58.4696 20.0205 59.0472 20.0354 59.7588 19.9951Z" fill="#3C322D"/>
<path d="M70.8257 50.247C70.6243 51.1184 70.4708 51.8827 70.2534 52.6294C70.2108 52.7759 69.8985 52.9734 69.7672 52.94C69.5311 52.883 69.1993 52.6987 69.1514 52.5074C69.0453 52.0943 69.0331 51.663 69.1159 51.2447C69.2827 50.4796 69.4469 49.753 69.1337 48.9712C68.9846 48.5965 69.0272 47.9989 69.6021 48.0007C69.9118 48.0007 70.3572 48.3798 70.4965 48.693C70.7227 49.1941 70.7378 49.7837 70.8257 50.247Z" fill="#3C322D"/>
<path d="M62.095 50.0233C61.9796 50.2277 61.9237 50.469 61.772 50.5726C60.8377 51.2096 59.9017 51.8493 58.9186 52.4065C58.6675 52.5487 58.2265 52.4609 57.9062 52.367C57.4368 52.2293 57.3392 51.6185 57.7287 51.3711C58.8041 50.6893 59.8857 50.0127 60.9939 49.3845C61.1713 49.2836 61.5262 49.3924 61.7552 49.5047C61.9104 49.5819 61.977 49.8311 62.095 50.0233Z" fill="#3C322D"/>
<path d="M50.1914 9.08973C50.3431 9.17748 50.6288 9.2547 50.667 9.39334C51.0379 10.7455 51.3954 12.1021 51.69 13.471C51.7716 13.8509 51.2632 14.0624 50.9225 13.8351C49.8498 13.1209 49.1817 10.4753 49.8072 9.36877C49.872 9.25909 50.0299 9.2038 50.1914 9.08973Z" fill="#3C322D"/>
<path d="M63.4472 12.9305C63.1242 12.7172 62.7755 12.6084 62.7285 12.4242C62.6779 12.2241 62.8447 11.8828 63.0257 11.7222C63.8129 11.0262 64.6362 10.3713 65.4923 9.76013C65.7807 9.55919 66.3796 9.41704 66.6014 9.57411C67.1249 9.93826 66.8498 10.4516 66.4852 10.8271C65.9954 11.3334 65.5092 11.867 64.9449 12.2759C64.5119 12.5839 63.9565 12.7164 63.4472 12.9305Z" fill="#3C322D"/>
<path d="M43.0498 20.0749L42.2655 20.8085C42.0419 20.5689 41.71 20.3697 41.616 20.0837C41.2398 18.964 40.9248 17.8242 40.6258 16.6817C40.585 16.5246 40.7145 16.2035 40.8476 16.1491C41.065 16.0613 41.4226 16.0262 41.5876 16.1491C41.9132 16.3869 42.285 16.7054 42.3915 17.0625C42.671 17.9926 42.8182 18.9649 43.0498 20.0749Z" fill="#3C322D"/>
<path d="M34.4629 38.8433C33.7433 40.1481 33.1967 41.4845 31.857 42.1962C31.6316 42.3155 31.133 42.1628 30.8916 41.9724C30.4817 41.6504 30.8916 41.3827 31.0913 41.1081C31.7203 40.2517 32.3015 39.3584 32.9696 38.5344C33.1417 38.323 33.5791 38.2186 33.8764 38.2475C34.0787 38.2659 34.2437 38.6064 34.4629 38.8433Z" fill="#3C322D"/>
<path d="M42.5911 38.9539C42.9664 39.1688 43.2388 39.2329 43.2894 39.3742C43.3728 39.6058 43.4163 39.97 43.2894 40.1306C43.0835 40.3868 42.7313 40.5342 42.4278 40.7062C41.6408 41.1528 40.8645 41.624 40.0464 42.0049C39.7971 42.1207 39.3455 42.0856 39.1237 41.9294C38.6667 41.6074 38.8273 41.0914 39.1946 40.8641C40.3179 40.1683 41.4989 39.5593 42.5911 38.9539Z" fill="#3C322D"/>
<path d="M83.2704 33.0449C82.9812 33.6899 82.5748 34.663 82.093 35.5984C82.0185 35.7432 81.5518 35.8222 81.354 35.7353C81.1703 35.6537 80.9698 35.2878 81.007 35.0895C81.2005 34.0496 81.4143 33.0063 81.7399 32.0025C81.8393 31.6962 82.2882 31.4181 82.6334 31.3154C82.7612 31.2777 83.0957 31.7542 83.2545 32.0455C83.345 32.2096 83.2704 32.4623 83.2704 33.0449Z" fill="#3C322D"/>
<path d="M34.2375 25.2915C35.5107 26.4217 35.359 27.9564 35.5001 29.3736C35.5267 29.6368 35.1957 30.0132 34.9313 30.2036C34.7929 30.3037 34.2304 30.1431 34.2171 30.051C34.0166 28.6198 33.8622 27.1807 33.7388 25.7399C33.7291 25.6171 34.0281 25.467 34.2375 25.2915Z" fill="#3C322D"/>
<path d="M63.9902 60.288C64.2036 60.3439 64.4137 60.4119 64.6192 60.4916C65.3841 60.8426 66.1533 61.1839 66.8995 61.57C67.2544 61.7525 67.6093 61.9807 67.8649 62.272C68.1585 62.6098 67.8232 63.2583 67.4124 63.1697C66.0247 62.8731 64.6689 62.4589 63.6308 61.4323C63.4773 61.2805 63.4809 60.9005 63.5306 60.6487C63.5599 60.5065 63.8278 60.4082 63.9902 60.288Z" fill="#3C322D"/>
<path d="M47.1028 25.7048C47.1765 25.9321 47.4285 26.2848 47.3397 26.5059C46.8739 27.6774 46.3345 28.8216 45.7853 29.9579C45.7178 30.0975 45.4304 30.2212 45.26 30.1984C45.1109 30.18 44.9051 29.9729 44.8661 29.8158C44.575 28.5496 45.4925 26.2831 46.5155 25.7127C46.6211 25.6539 46.7896 25.7048 47.1028 25.7048Z" fill="#3C322D"/>
<path d="M86.7822 44.9295C86.6225 44.8295 86.2898 44.7075 86.1168 44.4715C86.0476 44.3776 86.2712 43.9494 86.4637 43.8125C87.3173 43.1982 88.1886 42.6112 89.0971 42.0865C89.342 41.9452 89.8513 41.9347 90.0314 42.0935C90.1973 42.2409 90.2222 42.7955 90.0722 42.9991C89.311 44.0485 88.3509 44.8488 86.7822 44.9295Z" fill="#3C322D"/>
<path d="M81.5101 53.9658C80.8518 53.8982 80.5652 53.8912 80.291 53.8307C80.1748 53.8052 80.0018 53.6692 80 53.5806C79.9877 53.3809 80.0402 53.1826 80.1499 53.0146C80.2912 52.856 80.4762 52.7416 80.6823 52.6856C81.6973 52.3837 82.7132 52.081 83.7434 51.8362C83.967 51.7835 84.4381 51.9292 84.4674 52.0555C84.5348 52.3556 84.4541 52.718 84.3352 53.0208C84.2722 53.1805 84.0211 53.3138 83.8285 53.3717C82.9466 53.6113 82.0611 53.8254 81.5101 53.9658Z" fill="#3C322D"/>
<path d="M50.9465 46.7134C50.8737 47.0197 50.7557 47.698 50.5277 48.3376C50.4709 48.4965 50.0273 48.6491 49.8232 48.5912C49.6191 48.5333 49.3796 48.2007 49.3858 47.9928C49.4071 46.8091 49.4665 45.6236 49.5881 44.4451C49.6138 44.188 49.943 43.9617 50.1329 43.7212C50.36 43.959 50.7282 44.1687 50.7859 44.4416C50.9145 45.0524 50.887 45.6947 50.9465 46.7134Z" fill="#3C322D"/>
<path d="M98.5134 9.67401C98.5134 7.16638 99.1264 5.26499 100.352 3.96984C101.592 2.66091 103.181 2.00645 105.117 2.00645C107.054 2.00645 108.593 2.57135 109.735 3.70116C110.892 4.83097 111.47 6.63592 111.47 9.11599C111.47 11.5961 110.857 13.4699 109.631 14.7375C108.405 16.0051 106.768 16.6389 104.72 16.6389C102.951 16.6389 101.502 16.136 100.373 15.1302C99.7881 14.6066 99.3284 13.8832 98.994 12.9601C98.6736 12.0232 98.5134 10.9278 98.5134 9.67401ZM105.054 2.21312C103.647 2.21312 102.491 2.83314 101.585 4.07317C100.694 5.31321 100.248 7.13193 100.248 9.52934C100.248 11.9267 100.673 13.6766 101.523 14.7788C102.372 15.8811 103.501 16.4322 104.908 16.4322C106.329 16.4322 107.485 15.8122 108.377 14.5721C109.283 13.3183 109.735 11.5065 109.735 9.13666C109.735 6.75303 109.304 5.0032 108.44 3.88717C107.59 2.77114 106.461 2.21312 105.054 2.21312Z" fill="#3C322D"/>
<path d="M115.084 16.5562H113.35V2.08911H115.084V8.74398H121.876V2.08911H123.611V16.5562H121.876V8.95065H115.084V16.5562Z" fill="#3C322D"/>
<path d="M132.527 16.5562H132.255L134.073 2.08911H134.763L139.151 15.4608L143.519 2.08911H144.209L146.027 16.5562H144.292L142.85 4.98253L139.068 16.5562H137.751L133.927 5.1272L132.527 16.5562Z" fill="#3C322D"/>
<path d="M157.603 2.08911C157.868 2.3509 158 2.68847 158 3.10181C158 3.44627 157.923 3.79761 157.77 4.15584L154.029 11.6581V16.5562H152.295V12.1127L148.115 2.08911H149.892L153.883 11.4101L157.519 4.15584C157.673 3.81139 157.749 3.45316 157.749 3.08114C157.749 2.70913 157.645 2.41979 157.436 2.21312L157.603 2.08911Z" fill="#3C322D"/>
<path d="M2.94608 20.3575C4.0263 20.3089 5.08198 20.2846 6.11311 20.2846C7.16879 20.2846 8.27357 20.3939 9.42745 20.6124C10.6059 20.8309 11.7598 21.2437 12.8891 21.8507C14.043 22.4334 15.0127 23.1982 15.7983 24.1451C16.6085 25.0677 17.2591 26.2939 17.7501 27.8235C18.2411 29.3531 18.4866 31.2106 18.4866 33.3957C18.4866 35.5809 18.1184 37.5476 17.3819 39.2957C16.6699 41.0196 15.6879 42.3429 14.4358 43.2655C12.0053 45.0622 9.07146 45.9606 5.63437 45.9606C4.43139 45.9606 3.16703 45.912 1.8413 45.8149H0V20.3575H2.94608ZM3.05655 45.5235C3.57212 45.5721 4.22271 45.5964 5.00833 45.5964C5.79395 45.5964 6.38317 45.5842 6.77598 45.5599C7.16879 45.5357 7.7089 45.4385 8.39632 45.2686C9.08374 45.0743 9.72205 44.8194 10.3113 44.5038C10.9005 44.1881 11.5142 43.7268 12.1526 43.1198C12.8154 42.4885 13.3801 41.748 13.8466 40.8982C14.9022 38.9073 15.4301 36.3093 15.4301 33.1044C15.4301 30.8221 15.1477 28.8554 14.5831 27.2044C14.0184 25.5291 13.3678 24.2908 12.6313 23.4896C11.9193 22.6883 11.0478 22.057 10.0167 21.5957C8.98553 21.1101 8.16309 20.8309 7.54932 20.7581C6.93556 20.6852 6.22359 20.6488 5.41342 20.6488C4.60325 20.6488 3.81762 20.6852 3.05655 20.7581V45.5235Z" fill="#3C322D"/>
<path d="M99.1112 45.8149H98.6324V20.321H99.8845L115.204 43.8846V20.321H115.683V45.8149H112.995L99.1112 24.6914V45.8149Z" fill="#3C322D"/>
<path d="M138.359 20.321H138.838V34.889C138.838 38.7009 138.077 41.5052 136.555 43.3019C135.033 45.0743 133.044 45.9606 130.589 45.9606C129.042 45.9606 127.729 45.827 126.649 45.5599C125.568 45.2686 124.55 44.7466 123.592 43.9939C121.628 42.4885 120.646 39.4536 120.646 34.889V20.321H123.703V34.8525C123.703 39.2715 124.378 42.2215 125.728 43.7025C126.415 44.4309 127.127 44.9287 127.864 45.1958C128.625 45.4628 129.533 45.5964 130.589 45.5964C132.946 45.5964 134.824 44.7466 136.223 43.047C137.647 41.3231 138.359 38.5916 138.359 34.8525V20.321Z" fill="#3C322D"/>
<path d="M151.401 45.8149H148.344V20.6852H141.973V20.321H157.809V20.6852H151.401V45.8149Z" fill="#3C322D"/>
</svg>
